@startuml
!include ../../../plantuml-styles/plantuml-ae-skinparam-ex.iuml

skinparam Handwritten false

title skinparam Handwritten false
abstract class AbstractList
abstract AbstractCollection
interface List
interface Collection

List <|-- AbstractList
Collection <|-- AbstractCollection

Collection <|- List
AbstractCollection <|- AbstractList

enum TimeUnit {
DAYS
HOURS
MINUTES
}
@enduml